<svg version="1.1" id="Layer_1" xmlns="http://www.w3.org/2000/svg" xmlns:xlink="http://www.w3.org/1999/xlink" x="0px" y="0px"
	 width="100%" viewBox="0 0 200 140" enable-background="new 0 0 200 140" xml:space="preserve">
<path fill="#1D3F48" opacity="1.000000" stroke="none" 
	d="
M128.000000,141.000000 
	C85.333336,141.000000 43.166676,141.000000 1.000011,141.000000 
	C1.000008,94.333344 1.000008,47.666687 1.000004,1.000024 
	C67.666649,1.000016 134.333298,1.000016 200.999954,1.000008 
	C200.999969,47.666641 200.999969,94.333282 200.999985,140.999969 
	C176.833328,141.000000 152.666672,141.000000 128.000000,141.000000 
M56.129971,119.737061 
	C46.416451,116.533295 38.805878,110.527695 33.331135,101.982246 
	C24.698645,88.507927 20.932816,73.877922 22.763714,57.768772 
	C24.739815,40.382069 34.590782,28.351015 50.563469,24.724417 
	C66.726532,21.054596 83.828583,28.345181 92.314529,42.505993 
	C92.963806,43.589462 93.717682,44.610241 95.093178,46.657951 
	C95.093178,41.055439 94.931091,36.631832 95.148987,32.227028 
	C95.299408,29.186222 94.022186,27.401976 91.259293,26.766415 
	C83.189468,24.910070 75.168686,22.474232 66.983826,21.554245 
	C44.115932,18.983868 22.147524,32.598682 14.095459,53.588604 
	C7.130393,71.744957 9.473087,100.191513 30.611555,115.113068 
	C50.297836,129.009537 83.222504,126.730652 99.682457,109.231407 
	C101.007668,107.822517 102.782211,106.038704 102.844231,104.373131 
	C103.163795,95.789917 102.992477,87.188423 102.992477,78.717751 
	C96.394066,78.717751 90.492340,78.717751 84.590622,78.717751 
	C90.744926,81.958084 91.544121,87.273788 91.555611,93.014069 
	C91.562286,96.345879 91.363792,99.713707 91.772377,103.001350 
	C92.513474,108.964470 89.538643,112.839912 85.118156,116.008522 
	C76.427597,122.237946 66.859200,122.458908 56.129971,119.737061 
M178.094513,29.262516 
	C180.422409,31.926439 182.750320,34.590363 185.078232,37.254288 
	C185.431763,37.151222 185.785278,37.048161 186.138809,36.945095 
	C185.720963,32.144970 185.303116,27.344847 184.887711,22.572821 
	C162.020050,22.572821 139.694748,22.572821 115.798553,22.572821 
	C123.185272,27.278351 122.828125,33.605808 122.850548,39.689289 
	C122.929756,61.176807 122.938637,82.664986 122.854706,104.152451 
	C122.829269,110.664688 123.604980,117.534523 116.145775,122.506630 
	C124.971390,122.506630 132.517365,122.506630 140.500366,122.506630 
	C135.097534,116.324348 134.931641,116.022926 134.835236,107.283363 
	C134.743362,98.955688 134.788651,90.626480 134.778137,82.297943 
	C134.772751,78.028870 134.777191,73.759781 134.777191,69.020950 
	C140.785126,69.020950 146.082474,68.893219 151.371445,69.049393 
	C160.421143,69.316612 169.999435,68.432190 175.447601,78.554451 
	C175.447601,71.475624 175.447601,64.396805 175.447601,57.583519 
	C172.464798,60.116951 170.028351,63.591686 166.791367,64.675591 
	C156.545883,68.106293 145.869339,66.518173 134.808640,66.696281 
	C134.808640,53.099152 134.729385,40.305531 134.961945,27.517580 
	C134.980179,26.514999 137.163208,24.717743 138.357666,24.702923 
	C147.678696,24.587276 157.028687,24.464453 166.316055,25.112801 
	C170.107666,25.377495 173.766464,27.544569 178.094513,29.262516 
z"/>
<path fill="#CF945D" opacity="1.000000" stroke="none" 
	d="
M56.528336,119.848083 
	C66.859200,122.458908 76.427597,122.237946 85.118156,116.008522 
	C89.538643,112.839912 92.513474,108.964470 91.772377,103.001350 
	C91.363792,99.713707 91.562286,96.345879 91.555611,93.014069 
	C91.544121,87.273788 90.744926,81.958084 84.590622,78.717751 
	C90.492340,78.717751 96.394066,78.717751 102.992477,78.717751 
	C102.992477,87.188423 103.163795,95.789917 102.844231,104.373131 
	C102.782211,106.038704 101.007668,107.822517 99.682457,109.231407 
	C83.222504,126.730652 50.297836,129.009537 30.611555,115.113068 
	C9.473087,100.191513 7.130393,71.744957 14.095459,53.588604 
	C22.147524,32.598682 44.115932,18.983868 66.983826,21.554245 
	C75.168686,22.474232 83.189468,24.910070 91.259293,26.766415 
	C94.022186,27.401976 95.299408,29.186222 95.148987,32.227028 
	C94.931091,36.631832 95.093178,41.055439 95.093178,46.657951 
	C93.717682,44.610241 92.963806,43.589462 92.314529,42.505993 
	C83.828583,28.345181 66.726532,21.054596 50.563469,24.724417 
	C34.590782,28.351015 24.739815,40.382069 22.763714,57.768772 
	C20.932816,73.877922 24.698645,88.507927 33.331135,101.982246 
	C38.805878,110.527695 46.416451,116.533295 56.528336,119.848083 
z"/>
<path fill="#CD935D" opacity="1.000000" stroke="none" 
	d="
M177.790100,29.054333 
	C173.766464,27.544569 170.107666,25.377495 166.316055,25.112801 
	C157.028687,24.464453 147.678696,24.587276 138.357666,24.702923 
	C137.163208,24.717743 134.980179,26.514999 134.961945,27.517580 
	C134.729385,40.305531 134.808640,53.099152 134.808640,66.696281 
	C145.869339,66.518173 156.545883,68.106293 166.791367,64.675591 
	C170.028351,63.591686 172.464798,60.116951 175.447601,57.583519 
	C175.447601,64.396805 175.447601,71.475624 175.447601,78.554451 
	C169.999435,68.432190 160.421143,69.316612 151.371445,69.049393 
	C146.082474,68.893219 140.785126,69.020950 134.777191,69.020950 
	C134.777191,73.759781 134.772751,78.028870 134.778137,82.297943 
	C134.788651,90.626480 134.743362,98.955688 134.835236,107.283363 
	C134.931641,116.022926 135.097534,116.324348 140.500366,122.506630 
	C132.517365,122.506630 124.971390,122.506630 116.145775,122.506630 
	C123.604980,117.534523 122.829269,110.664688 122.854706,104.152451 
	C122.938637,82.664986 122.929756,61.176807 122.850548,39.689289 
	C122.828125,33.605808 123.185272,27.278351 115.798553,22.572821 
	C139.694748,22.572821 162.020050,22.572821 184.887711,22.572821 
	C185.303116,27.344847 185.720963,32.144970 186.138809,36.945095 
	C185.785278,37.048161 185.431763,37.151222 185.078232,37.254288 
	C182.750320,34.590363 180.422409,31.926439 177.790100,29.054333 
z"/>
</svg>